# xmcd CD database file
#
# Track frame offsets:
#	150
#	13270
#	26662
#	40480
#	54200
#	67615
#	80890
#	94002
#	108087
#	122815
#	135772
#	150192
#	160287
#	174090
#	187702
#	201897
#	214350
#	227277
#	237617
#	251225
#	264085
#	278642
#	290017
#
# Disc length: 4049 seconds
#
# Revision: 0
# Processed by: cddbd v1.5.1PL0 Copyright (c) Steve Scherf et al.
# Submitted via: CDex 1.51
#
DISCID=2c0fcf17
DTITLE=Naxos Jazz Legends - Giants of Jazz
DYEAR=2003
DGENRE=Jazz
TTITLE0=Dizzy Gillespie-Cherokee
TTITLE1=Lonel Hampton-Flying home
TTITLE2=Gene Krupa-Drummin´ man
TTITLE3=Duke Ellington-Stormy Weather
TTITLE4=Charlie Spivak-Star dreams
TTITLE5=Sidney Bechet-Georgia on my mind
TTITLE6=King Kole Trio-Taint what you do
TTITLE7=Stan Kenton-Half a heart
TTITLE8=Artie Shaw-Begin the beguine
TTITLE9=Jo Venuti-Dinah
TTITLE10=Bob Crosby Summertime
TTITLE11=Teddy Wilson China bay
TTITLE12=Billy Eckstine Body and soul
TTITLE13=Count Basie-One o´clock jump
TTITLE14=Woody Herman-Casbah blues
TTITLE15=Errol Garner-Somebody loves me
TTITLE16=Fletcher Henderson-Happy Feet
TTITLE17=Fats Waller-Alligator Crawl
TTITLE18=Orrin Tucker-Drifting and dreaming
TTITLE19=Ted Lewis-When my baby smiles at me
TTITLE20=Art Tatum-Tea for two
TTITLE21=Tommy Dorsey-The sheik of araby
TTITLE22=Louis Armstrong-I got rhythm
EXTD=YEAR: 2003
EXTT0=
EXTT1=
EXTT2=
EXTT3=
EXTT4=
EXTT5=
EXTT6=
EXTT7=
EXTT8=
EXTT9=
EXTT10=
EXTT11=
EXTT12=
EXTT13=
EXTT14=
EXTT15=
EXTT16=
EXTT17=
EXTT18=
EXTT19=
EXTT20=
EXTT21=
EXTT22=
PLAYORDER=
